HIERARCHY
ROOT Hips
{
    OFFSET   0.000000   0.000000   0.000000
    CHANNELS 6 Xposition Yposition Zposition Zrotation Xrotation Yrotation
    JOINT Chest
    {
        OFFSET   0.000000   8.007230   0.000000
        CHANNELS 3 Zrotation Xrotation Yrotation
        JOINT Chest2
        {
            OFFSET   0.000000  22.077100   0.000000
            CHANNELS 3 Zrotation Xrotation Yrotation
            JOINT Neck
            {
                OFFSET   0.000000  23.255100   0.000000
                CHANNELS 3 Zrotation Xrotation Yrotation
                JOINT Head
                {
                    OFFSET   0.000000  14.370100   1.956600
                    CHANNELS 3 Zrotation Xrotation Yrotation
                    End Site
                    {
                        OFFSET   0.000000  19.566000   0.000000
                    }
                }
            }
            JOINT LeftCollar
            {
                OFFSET   3.911900  19.017000  -0.467063
                CHANNELS 3 Zrotation Xrotation Yrotation
                JOINT LeftShoulder
                {
                    OFFSET  10.383700   0.000000   0.000000
                    CHANNELS 3 Zrotation Xrotation Yrotation
                    JOINT LeftElbow
                    {
                        OFFSET  26.662100   0.001193   0.000980
                        CHANNELS 3 Zrotation Xrotation Yrotation
                        JOINT LeftWrist
                        {
                            OFFSET  28.869000  -0.000059  -0.000082
                            CHANNELS 3 Zrotation Xrotation Yrotation
                            JOINT LeftFinger0
                            {
                                OFFSET   2.044650  -2.323450   3.252850
                                CHANNELS 3 Zrotation Xrotation Yrotation
                                JOINT LeftFinger01
                                {
                                    OFFSET   3.088130   0.000000   0.000000
                                    CHANNELS 3 Zrotation Xrotation Yrotation
                                    JOINT LeftFinger02
                                    {
                                        OFFSET   2.639460   0.000000   0.000000
                                        CHANNELS 3 Zrotation Xrotation Yrotation
                                        End Site
                                        {
                                            OFFSET   2.582190   0.000000   0.000000
                                        }
                                    }
                                }
                            }
                            JOINT LeftFinger1
                            {
                                OFFSET   8.364480   0.000000   3.252850
                                CHANNELS 3 Zrotation Xrotation Yrotation
                                JOINT LeftFinger11
                                {
                                    OFFSET   4.646930   0.000000   0.000000
                                    CHANNELS 3 Zrotation Xrotation Yrotation
                                    JOINT LeftFinger12
                                    {
                                        OFFSET   2.323470   0.000000   0.000000
                                        CHANNELS 3 Zrotation Xrotation Yrotation
                                        End Site
                                        {
                                            OFFSET   2.273050   0.000000   0.000000
                                        }
                                    }
                                }
                            }
                            JOINT LeftFinger2
                            {
                                OFFSET   8.364490   0.000016   1.078090
                                CHANNELS 3 Zrotation Xrotation Yrotation
                                JOINT LeftFinger21
                                {
                                    OFFSET   5.111610   0.000000   0.000000
                                    CHANNELS 3 Zrotation Xrotation Yrotation
                                    JOINT LeftFinger22
                                    {
                                        OFFSET   2.788150   0.000016   0.000000
                                        CHANNELS 3 Zrotation Xrotation Yrotation
                                        End Site
                                        {
                                            OFFSET   2.727660   0.000000   0.000000
                                        }
                                    }
                                }
                            }
                            JOINT LeftFinger3
                            {
                                OFFSET   7.899780   0.000015  -1.078090
                                CHANNELS 3 Zrotation Xrotation Yrotation
                                JOINT LeftFinger31
                                {
                                    OFFSET   4.646930   0.000000   0.000000
                                    CHANNELS 3 Zrotation Xrotation Yrotation
                                    JOINT LeftFinger32
                                    {
                                        OFFSET   2.323470   0.000000   0.000000
                                        CHANNELS 3 Zrotation Xrotation Yrotation
                                        End Site
                                        {
                                            OFFSET   2.273050   0.000000   0.000000
                                        }
                                    }
                                }
                            }
                            JOINT LeftFinger4
                            {
                                OFFSET   7.435090   0.000000  -3.252850
                                CHANNELS 3 Zrotation Xrotation Yrotation
                                JOINT LeftFinger41
                                {
                                    OFFSET   3.717550   0.000000   0.000000
                                    CHANNELS 3 Zrotation Xrotation Yrotation
                                    JOINT LeftFinger42
                                    {
                                        OFFSET   1.858770   0.000000   0.000000
                                        CHANNELS 3 Zrotation Xrotation Yrotation
                                        End Site
                                        {
                                            OFFSET   1.818440   0.000000   0.000000
                                        }
                                    }
                                }
                            }
                        }
                    }
                }
            }
            JOINT RightCollar
            {
                OFFSET  -3.911910  19.017000  -0.467062
                CHANNELS 3 Zrotation Xrotation Yrotation
                JOINT RightShoulder
                {
                    OFFSET -10.383700   0.000014   0.000000
                    CHANNELS 3 Zrotation Xrotation Yrotation
                    JOINT RightElbow
                    {
                        OFFSET -26.662100   0.001225   0.001091
                        CHANNELS 3 Zrotation Xrotation Yrotation
                        JOINT RightWrist
                        {
                            OFFSET -28.869000  -0.000020  -0.000085
                            CHANNELS 3 Zrotation Xrotation Yrotation
                            JOINT RightFinger0
                            {
                                OFFSET  -2.044650  -2.323490   3.252850
                                CHANNELS 3 Zrotation Xrotation Yrotation
                                JOINT RightFinger01
                                {
                                    OFFSET  -3.088130   0.000000   0.000000
                                    CHANNELS 3 Zrotation Xrotation Yrotation
                                    JOINT RightFinger02
                                    {
                                        OFFSET  -2.639460   0.000000   0.000000
                                        CHANNELS 3 Zrotation Xrotation Yrotation
                                        End Site
                                        {
                                            OFFSET  -2.582190   0.000000   0.000000
                                        }
                                    }
                                }
                            }
                            JOINT RightFinger1
                            {
                                OFFSET  -8.364480   0.000000   3.252850
                                CHANNELS 3 Zrotation Xrotation Yrotation
                                JOINT RightFinger11
                                {
                                    OFFSET  -4.646930   0.000000   0.000000
                                    CHANNELS 3 Zrotation Xrotation Yrotation
                                    JOINT RightFinger12
                                    {
                                        OFFSET  -2.323470   0.000000   0.000000
                                        CHANNELS 3 Zrotation Xrotation Yrotation
                                        End Site
                                        {
                                            OFFSET  -2.273050   0.000000   0.000000
                                        }
                                    }
                                }
                            }
                            JOINT RightFinger2
                            {
                                OFFSET  -8.364480   0.000000   1.078090
                                CHANNELS 3 Zrotation Xrotation Yrotation
                                JOINT RightFinger21
                                {
                                    OFFSET  -5.111620   0.000000   0.000000
                                    CHANNELS 3 Zrotation Xrotation Yrotation
                                    JOINT RightFinger22
                                    {
                                        OFFSET  -2.788160   0.000000   0.000000
                                        CHANNELS 3 Zrotation Xrotation Yrotation
                                        End Site
                                        {
                                            OFFSET  -2.727660   0.000000   0.000000
                                        }
                                    }
                                }
                            }
                            JOINT RightFinger3
                            {
                                OFFSET  -7.899780   0.000000  -1.078090
                                CHANNELS 3 Zrotation Xrotation Yrotation
                                JOINT RightFinger31
                                {
                                    OFFSET  -4.646930   0.000000   0.000000
                                    CHANNELS 3 Zrotation Xrotation Yrotation
                                    JOINT RightFinger32
                                    {
                                        OFFSET  -2.323470   0.000000   0.000000
                                        CHANNELS 3 Zrotation Xrotation Yrotation
                                        End Site
                                        {
                                            OFFSET  -2.273050   0.000000   0.000000
                                        }
                                    }
                                }
                            }
                            JOINT RightFinger4
                            {
                                OFFSET  -7.435090   0.000000  -3.252850
                                CHANNELS 3 Zrotation Xrotation Yrotation
                                JOINT RightFinger41
                                {
                                    OFFSET  -3.717550   0.000000   0.000000
                                    CHANNELS 3 Zrotation Xrotation Yrotation
                                    JOINT RightFinger42
                                    {
                                        OFFSET  -1.858760   0.000000   0.000000
                                        CHANNELS 3 Zrotation Xrotation Yrotation
                                        End Site
                                        {
                                            OFFSET  -1.818440   0.000000   0.000000
                                        }
                                    }
                                }
                            }
                        }
                    }
                }
            }
        }
    }
    JOINT LeftHip
    {
        OFFSET   9.783030   0.000000   0.000000
        CHANNELS 3 Zrotation Xrotation Yrotation
        JOINT LeftKnee
        {
            OFFSET   0.000063 -41.789100   0.000608
            CHANNELS 3 Zrotation Xrotation Yrotation
            JOINT LeftAnkle
            {
                OFFSET   0.000048 -41.133200  -0.000184
                CHANNELS 3 Zrotation Xrotation Yrotation
                JOINT LeftToe
                {
                    OFFSET   0.000000  -6.358960  14.674500
                    CHANNELS 3 Zrotation Xrotation Yrotation
                    End Site
                    {
                        OFFSET   0.000000   0.000000   3.913200
                    }
                }
            }
        }
    }
    JOINT RightHip
    {
        OFFSET  -9.783030   0.000000   0.000000
        CHANNELS 3 Zrotation Xrotation Yrotation
        JOINT RightKnee
        {
            OFFSET   0.000071 -41.789100   0.001239
            CHANNELS 3 Zrotation Xrotation Yrotation
            JOINT RightAnkle
            {
                OFFSET   0.000037 -41.133200  -0.000166
                CHANNELS 3 Zrotation Xrotation Yrotation
                JOINT RightToe
                {
                    OFFSET   0.000000  -6.358960  14.674500
                    CHANNELS 3 Zrotation Xrotation Yrotation
                    End Site
                    {
                        OFFSET   0.000000   0.000000   3.913200
                    }
                }
            }
        }
    }
}
MOTION
Frames: 4
Frame Time:   0.016667
  3.525460  88.486500   3.518600   4.180760 -26.905700   1.436080  -3.327230  16.854300   4.125920  -8.566280  33.364100  10.006500 -15.238200  -6.116940  -1.666160 -25.607900  -9.804460  -4.597740 -13.320500 -12.939200   3.146710 -52.321000  35.718500 -49.622100  -2.278580  -0.974715 -121.561000  72.627000 -24.040800 -48.674200  38.879800  24.616000 -60.670300 -23.774600  -0.000289  -0.000073  -6.887320   0.001325  -0.008987 -18.782600  -3.356020   9.767010 -15.602300   0.000462  -0.005138 -10.921600   0.001502  -0.003094 -24.936200  -4.391000   9.350860 -25.295500   0.004042   0.001205 -16.846800   0.004256  -0.000435 -24.184700  -4.267210   9.407590 -24.535900   0.001730   0.000378 -16.340900   0.003089  -0.000575 -26.350400  -4.621710   9.239750 -40.086100   0.005038   0.001347 -26.697300   0.006612   0.002264   1.347620  -5.781310  12.238500  57.209800  32.041200  61.474100  -2.811900   0.398461 108.865000 -74.974900 -27.207300  48.402800 -48.135700  40.571300  82.656800   8.760770   0.003428  -0.000476  -0.619615   0.000298  -0.002065  33.866400  -1.263460  -1.881840  27.725800  -0.010256   0.004313  19.408100  -0.000232   0.001730  28.619100  -1.228620  -2.250730  37.983900  -0.003603  -0.000124  25.297300  -0.002774   0.000844  28.575600  -3.249580  -5.941930  40.063500  -0.004520   0.003580  26.682300   0.000832   0.000612  35.236700  -3.917870  -5.525090  53.138700  -0.001261  -0.002947  35.390500   0.002836   0.000078  -5.624020  27.728700   0.602996   0.991009   5.310670  10.619300  -2.428880  -6.471550   0.373962  -0.000000   0.000000  -0.000000  -7.573900  19.666300  -6.347650  -2.493130  23.182100 -11.542900   6.113220 -13.725200  -2.410550   0.000000   0.000000   0.000000
  3.513570  88.483600   3.559320   4.141980 -26.935500   1.360680  -3.300240  16.854300   4.117510  -8.505680  33.367800   9.979460 -15.245200  -6.110660  -1.665520 -25.620900  -9.791550  -4.648530 -13.318000 -12.927600   3.150320 -52.218200  35.742300 -49.732500  -2.265640  -1.075090 -121.539000  72.671500 -23.996900 -48.655900  38.905200  24.617700 -60.718000 -23.693500  -0.000261  -0.000092  -6.846750   0.001262  -0.009140 -18.885800  -3.362690   9.732620 -15.686200   0.000436  -0.005255 -10.980400   0.001497  -0.003170 -25.006700  -4.391650   9.318320 -25.365000   0.004066   0.001099 -16.893100   0.004388  -0.000569 -24.217900  -4.260090   9.377850 -24.567400   0.001704   0.000276 -16.361900   0.003055  -0.000661 -26.402100  -4.616450   9.208810 -40.161100   0.005138   0.001359 -26.747300   0.006677   0.002233   1.341100  -5.774610  12.216100  57.179000  32.092000  61.533100  -2.830360   0.349264 108.868000 -74.923000 -27.204000  48.337700 -48.123300  40.564600  82.655800   8.755880   0.003422  -0.000452  -0.622063   0.000371  -0.002038  33.899200  -1.292120  -1.921810  27.753400  -0.010223   0.004259  19.427400  -0.000221   0.001742  28.619500  -1.233690  -2.259850  38.020800  -0.003539  -0.000205  25.321900  -0.002745   0.000817  28.574300  -3.266500  -5.972810  40.077200  -0.004506   0.003524  26.691500   0.000842   0.000615  35.247600  -3.940500  -5.552240  53.159100  -0.001330  -0.002939  35.404100   0.002862   0.000115  -5.628810  27.773100   0.582567   0.993891   5.334360  10.663800  -2.429760  -6.514880   0.422448  -0.000000   0.000000  -0.000000  -7.555050  19.712500  -6.301780  -2.499130  23.177100 -11.545200   6.122980 -13.744000  -2.392880   0.000000   0.000000   0.000000
  3.500430  88.481700   3.598020   4.099980 -26.957400   1.292280  -3.268820  16.853800   4.108190  -8.435250  33.370500   9.948800 -15.257300  -6.105570  -1.664870 -25.637800  -9.779690  -4.697210 -13.313300 -12.916300   3.155370 -52.101600  35.759200 -49.853400  -2.248990  -1.174210 -121.514000  72.717900 -23.936600 -48.653300  38.944600  24.664800 -60.798000 -23.652900  -0.000234  -0.000100  -6.826450   0.001195  -0.009296 -19.029300  -3.380140   9.700040 -15.804100   0.000411  -0.005373 -11.062900   0.001491  -0.003246 -25.096800  -4.393290   9.288370 -25.453900   0.004091   0.000991 -16.952300   0.004520  -0.000704 -24.250800  -4.254760   9.352210 -24.599000   0.001679   0.000170 -16.382900   0.003023  -0.000748 -26.443400  -4.611500   9.182720 -40.220900   0.005240   0.001372 -26.787200   0.006741   0.002202   1.322950  -5.758510  12.188400  57.170200  32.132700  61.583000  -2.848030   0.314929 108.873000 -74.890100 -27.197400  48.224200 -48.099400  40.563700  82.655700   8.721620   0.003413  -0.000428  -0.639194   0.000443  -0.002012  33.921900  -1.314930  -1.954360  27.772700  -0.010190   0.004204  19.440900  -0.000212   0.001753  28.619100  -1.257720  -2.303620  38.061000  -0.003475  -0.000288  25.348700  -0.002718   0.000792  28.570500  -3.309750  -6.052080  40.113700  -0.004495   0.003469  26.715700   0.000851   0.000617  35.282300  -3.995170  -5.624180  53.217900  -0.001398  -0.002930  35.443100   0.002887   0.000153  -5.627270  27.809800   0.564438   1.000500   5.356140  10.705200  -2.431220  -6.554970   0.462939  -0.000000   0.000000  -0.000000  -7.531130  19.755900  -6.255630  -2.499570  23.167800 -11.550800   6.129320 -13.759500  -2.376770   0.000000   0.000000   0.000000
  3.486800  88.481100   3.634240   4.055900 -26.973000   1.230060  -3.230730  16.850200   4.095160  -8.348740  33.368300   9.907460 -15.270400  -6.104300  -1.664520 -25.655800  -9.775440  -4.737730 -13.303000 -12.903900   3.165930 -51.996600  35.766800 -49.972600  -2.228990  -1.259770 -121.492000  72.737900 -23.834800 -48.698800  38.977500  24.863000 -60.997000 -23.714100  -0.000216  -0.000101  -6.857030   0.001128  -0.009448 -19.270200  -3.410620   9.657350 -16.002300   0.000387  -0.005494 -11.201700   0.001485  -0.003323 -25.235400  -4.397620   9.251470 -25.588100   0.004117   0.000881 -17.041800   0.004649  -0.000839 -24.286000  -4.247870   9.322370 -24.633500   0.001658   0.000058 -16.405900   0.002992  -0.000835 -26.464100  -4.601620   9.154030 -40.250600   0.005346   0.001386 -26.806900   0.006804   0.002173   1.287450  -5.735330  12.156700  57.198300  32.160300  61.625300  -2.870430   0.297754 108.880000 -74.870300 -27.145100  48.072400 -48.274900  40.721700  82.874100   8.500740   0.003387  -0.000433  -0.749632   0.000520  -0.001984  33.913900  -1.289810  -1.917780  27.765800  -0.010159   0.004147  19.436100  -0.000208   0.001763  28.617900  -1.319020  -2.415880  38.072100  -0.003410  -0.000360  25.356000  -0.002697   0.000765  28.566000  -3.394920  -6.207460  40.253800  -0.004486   0.003414  26.809000   0.000860   0.000608  35.402900  -4.111190  -5.759110  53.413100  -0.001467  -0.002929  35.573100   0.002913   0.000198  -5.620650  27.845400   0.557900   1.010000   5.370400  10.739400  -2.433390  -6.591110   0.489946   0.000000   0.000000   0.000000  -7.502850  19.790300  -6.218630  -2.497450  23.158200 -11.559400   6.130310 -13.771400  -2.361200  -0.000000   0.000000   0.000000
